<svg xmlns="http://www.w3.org/2000/svg" viewBox="0 0 425.33 51.81"><defs><style>.cls-1{fill:#6f6f6e;}.cls-2{fill:#2c428f;}.cls-3{fill:#dd942d;}.cls-4{fill:#00a2e2;}.cls-5{fill:#c51f3d;}.cls-6{fill:#cf641c;}</style></defs><title>18036_datalake_ecologie</title><g id="Calque_1" data-name="Calque 1"><path class="cls-1" d="M231.75,44.8h-1.41v-.64a6.82,6.82,0,0,1-2.88.83c-1.87,0-3.42-.76-3.42-4.86,0-3.34,1.08-5,4-5a15.34,15.34,0,0,1,2.33.25v-4.2h1.41ZM230.34,43V36.58a15.52,15.52,0,0,0-2.26-.23c-2,0-2.58,1.31-2.58,3.78,0,3.08,1,3.59,2.13,3.59A6.93,6.93,0,0,0,230.34,43Z"/><path class="cls-1" d="M234.5,31.51h1.42v1.65H234.5Zm0,3.8h1.42V44.8H234.5Z"/><path class="cls-1" d="M240.48,44.8h-1.42V36.54h-1.2V35.31h1.2v-.86c0-2.73.7-3.47,2.56-3.47.64,0,1.92.13,1.92.13l0,1.18s-1.07,0-1.64,0c-1.06,0-1.4.46-1.4,2.22v.84h2.75v1.23h-2.75Z"/><path class="cls-1" d="M246.76,44.8h-1.42V36.54h-1.2V35.31h1.2v-.86c0-2.73.7-3.47,2.56-3.47.65,0,1.92.13,1.92.13l0,1.18s-1.06,0-1.63,0c-1.07,0-1.41.46-1.41,2.22v.84h2.76v1.23h-2.76Z"/><path class="cls-1" d="M258.57,35.31V44.8h-1.42v-.66a6.47,6.47,0,0,1-2.81.85c-2.66,0-3.21-1.23-3.21-4.73V35.31h1.42v4.93c0,2.62.23,3.48,2,3.48a5.79,5.79,0,0,0,2.6-.7V35.31Z"/><path class="cls-1" d="M267.61,36.69a31.54,31.54,0,0,0-3.33-.3c-1.17,0-2.07.32-2.07,1.44,0,.9.46,1.14,2.47,1.48,2.38.4,3.27.88,3.27,2.72,0,2.22-1.41,3-3.68,3a26.94,26.94,0,0,1-3.35-.36L261,43.4s2.16.32,3.13.32c1.56,0,2.4-.34,2.4-1.63,0-1-.5-1.24-2.57-1.56s-3.17-.74-3.17-2.64c0-2.09,1.69-2.77,3.42-2.77a24.26,24.26,0,0,1,3.43.36Z"/><path class="cls-1" d="M277.14,43.57l0,1.12a33.67,33.67,0,0,1-3.71.3c-2.83,0-3.76-1.65-3.76-4.88,0-3.61,1.56-5,4-5s3.82,1.33,3.82,4.44l-.08,1.08h-6.26c0,2,.62,3.1,2.48,3.1C275.07,43.74,277.14,43.57,277.14,43.57Zm-1.07-4.07c0-2.35-.72-3.19-2.39-3.19s-2.52.9-2.54,3.19Z"/><path class="cls-1" d="M279.72,35.31h1.4V36.6a10.79,10.79,0,0,1,3.48-1.5v1.44a13.74,13.74,0,0,0-3.46,1.29v7h-1.42Z"/><path class="cls-1" d="M290.46,35.31h1.41V36a6.46,6.46,0,0,1,2.85-.87c2.39,0,3.43,1.46,3.43,4.82,0,3.72-1.21,5.05-4.14,5.05a11.85,11.85,0,0,1-2.12-.21V49h-1.43Zm1.43,1.84v6.4a13.88,13.88,0,0,0,2.05.21c2.09,0,2.77-1.08,2.77-3.82s-.82-3.55-2.2-3.55A6.19,6.19,0,0,0,291.89,37.15Z"/><path class="cls-1" d="M308.18,39.94c0,3.46-.86,5.05-4.07,5.05s-4.06-1.59-4.06-5.05c0-3.26,1.07-4.82,4.06-4.82S308.18,36.68,308.18,39.94Zm-1.46,0c0-2.64-.57-3.59-2.61-3.59s-2.6.95-2.6,3.59.36,3.82,2.6,3.82S306.72,42.64,306.72,39.94Z"/><path class="cls-1" d="M317.84,35.31V44.8h-1.42v-.66a6.47,6.47,0,0,1-2.81.85c-2.66,0-3.21-1.23-3.21-4.73V35.31h1.42v4.93c0,2.62.23,3.48,2,3.48a5.79,5.79,0,0,0,2.6-.7V35.31Z"/><path class="cls-1" d="M320.58,35.31H322V36.6a10.68,10.68,0,0,1,3.47-1.5v1.44A13.76,13.76,0,0,0,322,37.83v7h-1.42Z"/><path class="cls-1" d="M337.45,35.4l-.05,1.16s-1.52-.17-2.25-.17c-2.18,0-2.77,1-2.77,3.49,0,2.81.44,3.84,2.79,3.84.73,0,2.24-.17,2.24-.17l.06,1.18a25.55,25.55,0,0,1-2.64.26c-3,0-3.91-1.38-3.91-5.11,0-3.43,1.12-4.76,3.95-4.76A22.44,22.44,0,0,1,337.45,35.4Z"/><path class="cls-1" d="M347.19,39.94c0,3.46-.85,5.05-4.06,5.05s-4.07-1.59-4.07-5.05c0-3.26,1.07-4.82,4.07-4.82S347.19,36.68,347.19,39.94Zm-1.46,0c0-2.64-.57-3.59-2.6-3.59s-2.6.95-2.6,3.59.36,3.82,2.6,3.82S345.73,42.64,345.73,39.94Z"/><path class="cls-1" d="M349.51,44.8V35.31h1.4V36a6.43,6.43,0,0,1,2.77-.85,2.65,2.65,0,0,1,2.47,1,7.89,7.89,0,0,1,3.38-1c2.58,0,3.21,1.23,3.21,4.67v5h-1.42v-5c0-2.51-.29-3.44-2-3.44a6.27,6.27,0,0,0-2.67.7,11,11,0,0,1,.24,2.78V44.8h-1.42V39.9c0-2.62-.27-3.51-2-3.51a5.72,5.72,0,0,0-2.55.7V44.8Z"/><path class="cls-1" d="M365.38,35.31h1.4V36a6.51,6.51,0,0,1,2.85-.87c2.39,0,3.44,1.46,3.44,4.82,0,3.72-1.22,5.05-4.14,5.05a12.11,12.11,0,0,1-2.13-.21V49h-1.42Zm1.42,1.84v6.4a14,14,0,0,0,2.05.21c2.09,0,2.77-1.08,2.77-3.82s-.81-3.55-2.2-3.55A6.19,6.19,0,0,0,366.8,37.15Z"/><path class="cls-1" d="M375.38,35.31h1.41V36.6a10.68,10.68,0,0,1,3.47-1.5v1.44a13.76,13.76,0,0,0-3.45,1.29v7h-1.43Z"/><path class="cls-1" d="M388.77,43.57l0,1.12a33.67,33.67,0,0,1-3.71.3c-2.83,0-3.76-1.65-3.76-4.88,0-3.61,1.56-5,4-5s3.82,1.33,3.82,4.44l-.08,1.08h-6.26c0,2,.62,3.1,2.48,3.1C386.7,43.74,388.77,43.57,388.77,43.57ZM387.7,39.5c0-2.35-.72-3.19-2.39-3.19s-2.52.9-2.54,3.19Z"/><path class="cls-1" d="M391.35,44.8V35.31h1.4V36a7.26,7.26,0,0,1,2.95-.85c2.62,0,3.21,1.29,3.21,4.67v5H397.5v-5c0-2.51-.28-3.44-2.05-3.44a6.52,6.52,0,0,0-2.68.7V44.8Z"/><path class="cls-1" d="M408.84,44.8h-1.41v-.64a6.82,6.82,0,0,1-2.88.83c-1.87,0-3.42-.76-3.42-4.86,0-3.34,1.08-5,4-5a15.34,15.34,0,0,1,2.33.25v-4.2h1.41ZM407.43,43V36.58a15.52,15.52,0,0,0-2.26-.23c-2,0-2.58,1.31-2.58,3.78,0,3.08,1,3.59,2.13,3.59A6.93,6.93,0,0,0,407.43,43Z"/><path class="cls-1" d="M411.59,35.31H413V36.6a10.67,10.67,0,0,1,3.48-1.5v1.44A13.74,13.74,0,0,0,413,37.83v7h-1.42Z"/><path class="cls-1" d="M425,43.57l0,1.12a33.39,33.39,0,0,1-3.7.3c-2.83,0-3.76-1.65-3.76-4.88,0-3.61,1.56-5,4-5s3.81,1.33,3.81,4.44l-.07,1.08H419c0,2,.63,3.1,2.49,3.1C422.9,43.74,425,43.57,425,43.57Zm-1.06-4.07c0-2.35-.72-3.19-2.39-3.19s-2.53.9-2.55,3.19Z"/><rect class="cls-2" x="208.97" y="38.02" width="6.82" height="6.82"/><rect class="cls-3" x="208.97" y="29.83" width="6.82" height="6.82"/><rect class="cls-3" x="192.6" y="21.64" width="6.82" height="6.82"/><rect class="cls-4" x="208.97" y="21.64" width="6.82" height="6.82"/><rect class="cls-5" x="208.97" y="13.46" width="6.82" height="6.82"/><rect class="cls-4" x="200.79" y="38.02" width="6.82" height="6.82"/><rect class="cls-4" x="200.79" y="13.46" width="6.82" height="6.82"/><rect class="cls-5" x="192.6" y="38.02" width="6.82" height="6.82"/><rect class="cls-5" x="192.6" y="29.83" width="6.82" height="6.82"/><rect class="cls-6" x="200.79" y="29.83" width="6.82" height="6.82"/><rect class="cls-6" x="200.79" y="21.64" width="6.82" height="6.82"/><rect class="cls-6" x="208.93" y="5.36" width="6.82" height="6.82"/><rect class="cls-3" x="200.62" y="5.36" width="6.82" height="6.82"/><rect class="cls-6" x="192.65" y="5.36" width="6.82" height="6.82"/><rect class="cls-2" x="160.93" y="41.66" width="6.82" height="6.82"/><rect class="cls-2" x="153.5" y="35.8" width="6.82" height="6.82"/><rect class="cls-3" x="147.22" y="28.95" width="6.82" height="6.82"/><rect class="cls-3" x="158.36" y="22.73" width="6.82" height="6.82"/><rect class="cls-3" x="184.41" y="31.93" width="6.82" height="6.82"/><rect class="cls-3" x="166.37" y="25.54" width="6.82" height="6.82"/><rect class="cls-3" x="169.4" y="16.6" width="6.82" height="6.82"/><rect class="cls-4" x="164.19" y="38.56" width="6.82" height="6.82"/><rect class="cls-4" x="163.21" y="34.96" width="6.82" height="6.82"/><rect class="cls-4" x="176.23" y="37.63" width="6.82" height="6.82"/><rect class="cls-4" x="176.23" y="27.88" width="6.82" height="6.82"/><rect class="cls-6" x="170.91" y="43.92" width="6.82" height="6.82"/><rect class="cls-4" x="183.84" y="38.56" width="6.82" height="6.82"/><rect class="cls-6" x="168.33" y="28.71" width="6.82" height="6.82"/><rect class="cls-6" x="149.27" y="19.89" width="6.82" height="6.82"/><rect class="cls-6" x="161.94" y="26.14" width="6.82" height="6.82"/><rect class="cls-6" x="176.23" y="20.49" width="6.82" height="6.82"/><rect class="cls-6" x="184.41" y="23.69" width="6.82" height="6.82"/><rect class="cls-6" x="153.5" y="11.03" width="6.82" height="6.82"/><rect class="cls-4" x="182.91" y="4.22" width="6.82" height="6.82" transform="translate(132.73 186.24) rotate(-75.64)"/><rect class="cls-6" x="161.78" y="13.67" width="6.82" height="6.82"/><rect class="cls-6" x="174.32" y="11.03" width="6.82" height="6.82"/><rect class="cls-6" x="184.41" y="13.19" width="6.82" height="6.82"/><rect class="cls-3" x="63.45" y="34.8" width="6.41" height="6.41" transform="translate(26.08 103.14) rotate(-87.77)"/><rect class="cls-3" x="97.48" y="44.39" width="6.75" height="6.75" transform="translate(-0.66 1.42) rotate(-0.81)"/><rect class="cls-3" x="51.67" y="34.86" width="6.39" height="6.39" transform="translate(3.22 80.38) rotate(-74.07)"/><rect class="cls-5" x="37" y="31.05" width="6.63" height="6.63" transform="translate(2.85 71.82) rotate(-85.44)"/><rect class="cls-3" x="90.16" y="32.33" width="6.32" height="6.32" transform="translate(10.4 91.11) rotate(-54.68)"/><rect class="cls-3" x="109.69" y="32.95" width="6.35" height="6.35" transform="matrix(1, -0.07, 0.07, 1, -2.33, 8.31)"/><rect class="cls-3" x="98.71" y="32.69" width="6.22" height="6.22" transform="translate(54.9 133) rotate(-83.6)"/><rect class="cls-3" x="34.13" y="18.27" width="6.18" height="6.18" transform="translate(-2.36 4.79) rotate(-7.13)"/><rect class="cls-3" x="77.49" y="19.89" width="6.3" height="6.3" transform="translate(0.52 47.84) rotate(-33.15)"/><rect class="cls-2" x="109.95" y="29.28" width="6.25" height="6.25" transform="translate(15.26 97.73) rotate(-49.73)"/><rect class="cls-3" x="35.54" y="28.28" width="6.21" height="6.21" transform="translate(-6.02 53.38) rotate(-65.31)"/><rect class="cls-5" x="99.44" y="43.57" width="6.74" height="6.74" transform="translate(36.43 138.42) rotate(-78.58)"/><rect class="cls-5" x="113.02" y="29.26" width="6.29" height="6.29" transform="translate(25.79 112.25) rotate(-57.05)"/><rect class="cls-3" x="91.55" y="32.19" width="6.3" height="6.3" transform="translate(-3.23 10.31) rotate(-6.13)"/><rect class="cls-5" x="13.12" y="12.76" width="6.14" height="6.14" transform="translate(-0.4 0.42) rotate(-1.48)"/><rect class="cls-3" x="82.43" y="16.14" width="6.22" height="6.22" transform="translate(-1.04 33.1) rotate(-21.77)"/><rect class="cls-3" x="0.95" y="37.31" width="6.48" height="6.48" transform="translate(-35.14 29.82) rotate(-68.85)"/><rect class="cls-6" x="69.19" y="32.06" width="6.7" height="6.7" transform="translate(-3.12 7.26) rotate(-5.61)"/><rect class="cls-3" x="93.06" y="4.64" width="6.59" height="6.59" transform="translate(71.73 101.42) rotate(-79.95)"/><rect class="cls-3" x="115.54" y="27.1" width="6.2" height="6.2" transform="translate(48.9 130.82) rotate(-69.55)"/><rect class="cls-3" x="131.19" y="18.22" width="6.74" height="6.74" transform="translate(-1.24 33.03) rotate(-13.93)"/><rect class="cls-6" x="134.11" y="37.77" width="6.43" height="6.43" transform="translate(-3.08 69.71) rotate(-28.18)"/><rect class="cls-4" x="95.97" y="33.75" width="6.28" height="6.28" transform="translate(-2.43 66.46) rotate(-36.65)"/><rect class="cls-6" x="129.68" y="32.48" width="6.41" height="6.41" transform="translate(-3.59 18.15) rotate(-7.71)"/><rect class="cls-4" x="127.52" y="38.72" width="6.54" height="6.54" transform="translate(20.04 123.25) rotate(-54.07)"/><rect class="cls-4" x="70.32" y="29.31" width="6.23" height="6.23" transform="translate(-2.77 57.67) rotate(-42.15)"/><rect class="cls-2" x="39.25" y="42.44" width="6.25" height="6.25" transform="translate(-19.77 48.67) rotate(-49.93)"/><rect class="cls-6" x="92.57" y="27.32" width="6.33" height="6.33" transform="translate(6.74 77.11) rotate(-45.32)"/><rect class="cls-4" x="126.57" y="43.24" width="6.17" height="6.17" transform="translate(-1.42 4.2) rotate(-1.85)"/><rect class="cls-4" x="126.83" y="42.39" width="6.32" height="6.32" transform="translate(-5.02 18.29) rotate(-7.9)"/><rect class="cls-2" x="19.19" y="38.45" width="6.42" height="6.42" transform="translate(-20.83 60.83) rotate(-85.65)"/><rect class="cls-4" x="76.89" y="10.65" width="6.16" height="6.16" transform="translate(29.99 77.65) rotate(-61.72)"/><rect class="cls-6" x="124.36" y="7.03" width="6.79" height="6.79" transform="matrix(0.99, -0.11, 0.11, 0.99, -0.38, 13.76)"/><rect class="cls-6" x="89.25" y="18.55" width="6.42" height="6.42" transform="translate(60.64 111.27) rotate(-83.68)"/><rect class="cls-2" x="137.01" y="29.06" width="6.72" height="6.72" transform="translate(63.74 154.42) rotate(-70.87)"/><rect class="cls-4" x="60.07" y="42.41" width="6.4" height="6.4" transform="translate(0.5 91.91) rotate(-72.2)"/><rect class="cls-6" x="53.94" y="7.93" width="6.25" height="6.25" transform="translate(25.56 59.9) rotate(-68.15)"/><rect class="cls-4" x="29.28" y="21.66" width="6.18" height="6.18" transform="translate(-5.83 10.56) rotate(-17.03)"/><rect class="cls-2" x="34.83" y="36.96" width="6.41" height="6.41" transform="translate(-16.43 49.81) rotate(-56.6)"/><rect class="cls-6" x="70.27" y="21.95" width="6.78" height="6.78" transform="translate(10.37 70.75) rotate(-54.65)"/><rect class="cls-6" x="81.25" y="0.94" width="6.73" height="6.73" transform="translate(52.11 82.55) rotate(-70.35)"/><rect class="cls-2" x="72.25" y="43.69" width="6.82" height="6.82" transform="translate(-4.54 85.98) rotate(-57.77)"/><rect class="cls-4" x="108.35" y="17.13" width="6.72" height="6.72" transform="translate(-1.71 26.33) rotate(-13.34)"/><rect class="cls-6" x="107.31" y="32.79" width="6.77" height="6.77" transform="translate(67.79 144.44) rotate(-86.48)"/><rect class="cls-4" x="141.52" y="16.87" width="6.72" height="6.72" transform="translate(1.52 49.35) rotate(-19.43)"/><rect class="cls-4" x="28.49" y="3.68" width="6.49" height="6.49" transform="translate(20.06 37.24) rotate(-81.23)"/><rect class="cls-6" x="38.52" y="1.3" width="6.21" height="6.21" transform="translate(24.7 42.69) rotate(-72.19)"/><rect class="cls-6" x="107.39" y="35.17" width="6.22" height="6.22" transform="translate(-6.34 43.17) rotate(-21.5)"/><rect class="cls-6" x="70.9" y="2.84" width="6.2" height="6.2" transform="translate(46.09 74.74) rotate(-72.5)"/><rect class="cls-4" x="92.38" y="18.6" width="6.36" height="6.36" transform="translate(13.75 75.75) rotate(-46.25)"/><rect class="cls-4" x="136.32" y="23.34" width="6.3" height="6.3" transform="translate(5.31 72.9) rotate(-29.84)"/><rect class="cls-4" x="139.92" y="10.44" width="6.58" height="6.58" transform="translate(119.84 155.69) rotate(-86.13)"/><path class="cls-2" d="M224,5.49h5.84c3.69,0,5.5,2.05,5.5,5.81V23.19c0,3.76-1.81,5.8-5.5,5.8H224Zm3.69,3.36V25.64h2.08c1.18,0,1.88-.61,1.88-2.29V11.13c0-1.67-.7-2.28-1.88-2.28Z"/><path class="cls-2" d="M249.65,29h-3.73l-.63-4.26h-4.54L240.12,29h-3.4l3.76-23.5h5.41Zm-8.43-7.45h3.56L243,9.66Z"/><path class="cls-2" d="M249,5.49h11.41V8.85h-3.86V29h-3.69V8.85H249Z"/><path class="cls-2" d="M272.71,29H269l-.64-4.26h-4.53L263.17,29h-3.39l3.76-23.5H269Zm-8.43-7.45h3.56L266.06,9.66Z"/><path class="cls-2" d="M274.42,5.49h3.69V25.64h6.08V29h-9.77Z"/><path class="cls-2" d="M297.75,29H294l-.64-4.26h-4.53L288.21,29h-3.39l3.76-23.5H294Zm-8.43-7.45h3.56L291.1,9.66Z"/><path class="cls-2" d="M304.29,19.63l-1.14,2.15V29h-3.69V5.49h3.69V15.73L308,5.49h3.7L306.54,16l5.14,13h-3.8Z"/><path class="cls-2" d="M317.05,15.4h5.07v3.36h-5.07v6.88h6.37V29H313.35V5.49h10.07V8.85h-6.37Z"/><path class="cls-6" d="M329.26,25.44V29h-3.55V25.44Z"/><path class="cls-6" d="M335.64,15.4h5.07v3.36h-5.07v6.88H342V29H332V5.49H342V8.85h-6.38ZM340.91.53l-3.42,3.72H335L337.29.53Z"/><path class="cls-6" d="M355,20.23v3.12c0,3.76-1.88,5.91-5.51,5.91s-5.5-2.15-5.5-5.91V11.13c0-3.76,1.88-5.9,5.5-5.9S355,7.37,355,11.13v2.29h-3.49V10.9c0-1.68-.74-2.32-1.91-2.32s-1.92.64-1.92,2.32V23.59c0,1.68.74,2.28,1.92,2.28s1.91-.6,1.91-2.28V20.23Z"/><path class="cls-6" d="M357,11.13c0-3.76,2-5.9,5.6-5.9s5.61,2.14,5.61,5.9V23.35c0,3.76-2,5.91-5.61,5.91s-5.6-2.15-5.6-5.91Zm3.69,12.46c0,1.68.74,2.32,1.91,2.32s1.92-.64,1.92-2.32V10.9c0-1.68-.74-2.32-1.92-2.32s-1.91.64-1.91,2.32Z"/><path class="cls-6" d="M370.55,5.49h3.69V25.64h6.08V29h-9.77Z"/><path class="cls-6" d="M381.63,11.13c0-3.76,2-5.9,5.6-5.9s5.61,2.14,5.61,5.9V23.35c0,3.76-2,5.91-5.61,5.91s-5.6-2.15-5.6-5.91Zm3.69,12.46c0,1.68.74,2.32,1.91,2.32s1.92-.64,1.92-2.32V10.9c0-1.68-.74-2.32-1.92-2.32s-1.91.64-1.91,2.32Z"/><path class="cls-6" d="M400.76,15.9h5.17v7.45c0,3.76-1.88,5.91-5.51,5.91s-5.5-2.15-5.5-5.91V11.13c0-3.76,1.88-5.9,5.5-5.9s5.51,2.14,5.51,5.9v2.29h-3.49V10.9c0-1.68-.74-2.32-1.92-2.32s-1.91.64-1.91,2.32V23.59c0,1.68.74,2.28,1.91,2.28s1.92-.6,1.92-2.28V19.26h-1.68Z"/><path class="cls-6" d="M408.31,5.49H412V29h-3.69Z"/><path class="cls-6" d="M418.38,15.4h5.07v3.36h-5.07v6.88h6.38V29H414.69V5.49h10.07V8.85h-6.38Z"/></g></svg>